<?xml version="1.0" standalone="no"?>
<!DOCTYPE svg PUBLIC "-//W3C//DTD SVG 20010904//EN"
 "http://www.w3.org/TR/2001/REC-SVG-20010904/DTD/svg10.dtd">
<svg version="1.0" xmlns="http://www.w3.org/2000/svg"
 width="1366.000000pt" height="1366.000000pt" viewBox="0 0 1366.000000 1366.000000"
 preserveAspectRatio="xMidYMid meet">
<metadata>
Created by potrace 1.11, written by Peter Selinger 2001-2013
</metadata>
<g transform="translate(0.000000,1366.000000) scale(0.100000,-0.100000)"
fill="#000000" stroke="none">
<path d="M10107 10324 c-3 -5 -8 -47 -11 -94 -8 -109 -12 -152 -21 -220 -8
-63 -50 -268 -65 -320 -6 -19 -13 -46 -16 -59 -3 -13 -9 -32 -15 -43 -5 -10
-8 -18 -5 -18 5 0 -64 -201 -103 -300 -38 -95 -135 -305 -144 -311 -5 -3 -8
-9 -8 -13 2 -14 -127 -252 -197 -363 -29 -46 -52 -85 -52 -88 0 -3 -5 -11 -11
-18 -5 -7 -33 -48 -62 -92 -69 -106 -247 -356 -267 -375 -3 -3 -25 -32 -50
-65 -25 -33 -50 -64 -56 -70 -5 -5 -36 -41 -67 -80 -94 -117 -219 -256 -351
-388 -55 -57 -97 -109 -112 -141 l-24 -51 -1 55 c-2 61 -3 109 -14 445 -4 127
-7 238 -7 248 1 9 -1 17 -4 17 -5 0 -241 -167 -612 -434 -100 -72 -190 -135
-200 -141 -9 -5 -19 -12 -22 -15 -6 -7 -235 -171 -258 -185 -9 -5 -21 -14 -28
-20 -6 -5 -22 -17 -34 -25 -12 -8 -28 -21 -36 -27 -7 -7 -17 -13 -22 -13 -20
0 -31 -28 -37 -90 -8 -95 -15 -162 -20 -190 -3 -14 -7 -54 -10 -90 -5 -64 -7
-84 -19 -188 -3 -28 -9 -75 -12 -102 l-5 -51 33 18 c30 17 217 124 291 166 18
11 82 48 143 83 61 35 114 64 118 64 6 0 -92 -198 -104 -210 -3 -3 -24 -43
-48 -90 -86 -169 -167 -325 -172 -330 -3 -3 -29 -52 -58 -110 -29 -58 -81
-159 -116 -225 -187 -356 -178 -337 -154 -329 13 4 78 33 146 65 68 33 125 59
127 59 2 0 66 30 142 67 76 37 140 67 143 68 17 5 53 22 335 155 33 15 94 44
135 63 260 119 280 130 275 148 -3 10 -8 28 -10 41 -3 13 -8 37 -11 53 -4 17
-8 39 -10 50 -4 24 -10 55 -30 150 -17 77 -23 107 -29 145 -2 14 -6 34 -8 45
-11 47 -50 232 -54 255 -2 14 -8 41 -12 60 -5 19 -9 42 -10 50 -1 8 -4 32 -7
53 -5 28 -3 37 8 37 8 0 23 9 33 20 10 11 22 20 27 20 5 0 24 11 42 25 18 14
38 25 44 25 7 0 12 4 12 9 0 5 15 18 33 29 19 11 45 27 58 35 l24 16 1 -70 c2
-96 47 -187 146 -290 85 -89 125 -142 166 -224 56 -112 76 -201 76 -345 0
-249 -69 -437 -275 -748 -74 -111 -85 -131 -61 -116 40 25 92 65 114 87 10 9
20 17 23 17 8 0 130 94 138 108 4 6 12 12 16 12 9 0 121 107 161 155 35 42
120 165 120 174 0 5 11 29 25 55 14 26 25 51 25 56 0 5 5 21 12 37 6 15 12 33
14 38 7 30 16 72 16 83 2 26 15 8 68 -101 40 -80 69 -125 104 -159 48 -47 126
-92 182 -106 41 -9 159 -9 219 2 28 4 56 9 63 9 18 1 15 4 -22 29 l-34 24 83
-2 c45 -1 113 5 151 13 38 7 80 16 94 18 14 3 37 8 53 11 36 7 34 21 -5 38
-62 26 -208 98 -212 105 -2 3 30 6 72 6 133 1 209 25 317 101 55 39 175 155
175 170 0 3 -10 4 -23 1 -12 -4 -67 -8 -122 -11 -98 -5 -99 -5 -52 8 146 42
292 152 458 346 35 41 68 79 74 83 10 8 -34 4 -85 -8 -65 -16 -225 -43 -285
-49 -106 -11 -161 -17 -185 -22 -55 -12 -2 14 61 29 36 9 88 26 115 38 27 13
52 23 56 23 4 1 17 9 28 19 11 9 24 17 28 17 7 0 57 41 108 91 45 43 119 156
144 220 11 30 25 63 30 74 6 11 12 31 14 45 3 14 5 25 6 25 2 0 8 32 14 75 3
19 8 52 11 74 3 21 8 43 11 47 11 19 -11 7 -75 -38 -149 -108 -220 -143 -153
-76 58 58 99 115 129 180 15 32 28 60 29 63 0 3 3 12 7 20 7 17 30 98 34 120
13 77 16 117 18 263 1 92 -2 170 -6 173 -9 5 -17 -4 -79 -77 -63 -77 -215
-222 -282 -272 -32 -23 -58 -45 -58 -49 0 -5 -7 -8 -15 -8 -8 0 -15 -4 -15
-10 0 -5 -5 -10 -10 -10 -6 0 -34 -18 -62 -40 -28 -23 -52 -39 -55 -37 -2 2
13 22 33 43 38 41 126 153 182 232 34 47 103 179 117 224 4 12 9 28 10 33 2 6
6 19 9 30 2 11 12 48 21 82 26 102 39 222 38 373 0 91 -9 255 -13 255 -1 0 -3
9 -4 20 -2 11 -7 45 -11 75 -5 30 -8 63 -9 73 0 9 -3 17 -6 17 -5 0 -12 -15
-55 -120 -40 -98 -55 -134 -65 -150 -5 -8 -26 -44 -46 -80 -21 -36 -40 -67
-43 -70 -4 -3 -19 -24 -34 -47 -24 -38 -178 -234 -213 -273 -171 -187 -354
-375 -354 -366 0 4 36 54 80 112 44 57 80 107 80 109 0 3 7 13 15 22 28 35
105 149 167 248 34 55 65 102 68 105 4 3 13 19 22 35 8 17 37 69 65 116 42 72
100 187 133 264 23 53 39 95 35 95 -2 0 2 18 10 41 8 23 16 54 17 70 1 16 5
29 8 29 13 0 19 253 7 330 -12 82 -48 194 -93 287 -25 51 -51 99 -57 106 -7 6
-29 35 -49 62 -41 57 -131 145 -198 196 -25 18 -48 37 -51 42 -4 5 -9 5 -12 1z"/>
<path d="M3683 10212 c-12 -10 -36 -28 -55 -42 -69 -52 -180 -172 -232 -252
-110 -170 -164 -353 -160 -543 2 -68 5 -101 18 -190 1 -5 5 -16 9 -22 5 -7 6
-13 3 -13 -16 0 67 -225 122 -330 68 -129 221 -381 291 -481 14 -20 32 -45 38
-55 38 -58 145 -207 185 -259 26 -32 46 -61 44 -63 -3 -3 -146 140 -243 244
-52 55 -143 159 -188 214 -20 25 -43 53 -51 63 -8 9 -14 22 -14 27 0 6 -4 10
-8 10 -9 0 -92 117 -92 129 0 4 -9 16 -20 26 -11 10 -20 22 -20 27 0 5 -11 25
-23 46 -13 20 -36 66 -52 102 -15 36 -33 79 -40 95 -8 17 -21 49 -30 73 -19
46 -29 47 -31 4 -1 -15 -5 -40 -8 -57 -9 -45 -18 -115 -21 -160 -2 -22 -4 -42
-5 -45 -10 -27 2 -349 16 -410 3 -14 7 -36 10 -50 13 -71 18 -91 41 -160 39
-117 98 -233 151 -296 9 -11 26 -33 37 -48 37 -52 110 -141 138 -168 15 -16
25 -28 21 -28 -10 0 -146 98 -185 133 -10 9 -22 17 -25 17 -18 0 -211 182
-273 258 -19 23 -49 58 -68 78 l-33 37 -1 -39 c-6 -171 -5 -270 2 -325 27
-199 96 -356 206 -465 44 -44 46 -57 5 -28 -12 8 -22 12 -22 8 0 -4 -10 1 -22
12 -13 11 -52 39 -88 63 -36 24 -70 51 -77 59 -10 12 -11 5 -8 -34 2 -27 6
-60 9 -74 4 -14 8 -41 11 -60 11 -83 87 -261 141 -331 103 -132 276 -240 422
-262 12 -2 28 -9 35 -17 6 -7 7 -10 2 -7 -6 3 -42 8 -80 11 -77 6 -131 13
-185 22 -19 3 -46 7 -60 9 -14 2 -69 13 -123 25 -55 12 -101 20 -103 17 -6 -6
143 -175 206 -234 114 -105 198 -159 302 -192 50 -16 59 -29 15 -22 -15 2
-123 13 -159 15 -45 3 -44 1 50 -91 124 -123 250 -180 397 -179 46 1 81 -2 79
-5 -6 -10 -230 -119 -245 -119 -34 0 13 -20 81 -35 125 -26 151 -29 242 -30
85 0 87 -1 65 -17 -12 -10 -25 -18 -29 -18 -5 0 -8 -4 -8 -9 0 -13 182 -34
238 -27 28 3 63 11 79 18 15 6 33 12 40 14 33 7 150 112 171 154 7 14 19 36
27 50 8 14 27 53 42 87 30 66 43 79 43 39 0 -13 7 -40 15 -60 8 -20 13 -36 11
-36 -6 0 52 -140 64 -155 4 -5 18 -28 30 -50 66 -119 204 -259 384 -390 16
-11 61 -46 102 -78 41 -31 74 -53 74 -47 0 9 -35 65 -50 80 -3 3 -11 17 -19
32 -8 15 -22 37 -33 47 -10 11 -18 22 -18 25 0 3 -20 36 -44 73 -56 87 -123
230 -141 303 -2 8 -11 40 -19 70 -43 152 -41 333 3 479 15 49 92 201 101 201
5 0 11 9 15 19 3 11 42 56 87 102 54 56 92 106 117 154 32 64 35 78 36 155 0
110 -22 156 -127 264 -117 119 -252 266 -323 351 -22 26 -47 56 -55 65 -35 42
-50 61 -138 175 -51 66 -100 128 -108 138 -8 9 -14 20 -14 23 0 3 -11 20 -25
38 -33 40 -34 43 -70 96 -16 25 -33 50 -38 55 -45 60 -260 415 -276 457 -5 14
-15 29 -20 33 -6 3 -11 15 -11 26 0 10 -4 19 -8 19 -8 0 -81 148 -141 283 -12
26 -30 67 -41 92 -11 25 -20 51 -20 58 0 7 -4 17 -9 22 -8 10 -91 258 -107
320 -4 17 -8 35 -10 40 -9 30 -34 139 -39 167 -3 18 -8 41 -11 50 -3 9 -7 32
-9 50 -2 18 -7 56 -10 83 -13 105 -15 122 -20 205 -3 46 -7 85 -8 86 -1 1 -12
-5 -24 -14z"/>
<path d="M5394 7575 c2 -223 6 -409 9 -412 3 -3 2 -15 -3 -28 -6 -16 -4 -30 8
-46 17 -25 142 -180 152 -189 4 -3 46 -54 95 -115 48 -60 93 -115 99 -121 6
-7 22 -27 36 -45 14 -18 30 -37 35 -43 23 -25 125 -155 125 -160 0 -6 -49 -56
-55 -56 -6 0 -27 23 -76 81 -24 29 -55 65 -69 81 -14 15 -36 41 -50 58 -14 17
-36 44 -50 59 -14 16 -39 46 -57 67 -17 22 -41 50 -53 64 -27 31 -86 100 -135
160 l-37 45 6 -45 c3 -25 8 -67 11 -95 3 -27 8 -57 10 -65 3 -8 7 -40 10 -70
3 -30 7 -66 10 -80 9 -47 17 -105 20 -145 2 -22 6 -51 9 -65 6 -26 10 -57 22
-145 8 -55 12 -80 14 -80 1 0 3 -16 5 -35 7 -81 17 -155 21 -162 2 -3 26 -14
52 -24 68 -25 73 -34 19 -34 l-47 0 -1 -277 c-2 -308 -1 -356 7 -393 3 -14 7
-39 9 -56 2 -17 7 -46 12 -65 6 -19 9 -44 8 -56 -1 -13 2 -23 5 -23 4 0 11
-19 15 -42 5 -24 9 -45 10 -48 1 -3 4 -12 7 -20 3 -8 18 -51 33 -95 57 -166
161 -358 263 -483 74 -93 235 -242 260 -242 6 0 12 -4 14 -8 4 -11 93 -63 162
-95 72 -34 179 -71 271 -93 54 -13 148 -25 231 -29 42 -2 78 -6 81 -8 2 -3 17
-2 31 2 15 4 39 4 54 0 15 -4 29 -4 33 -1 3 3 18 7 33 8 128 11 237 32 322 62
8 3 20 6 26 7 6 2 43 17 83 35 181 79 322 186 453 343 53 64 138 191 138 206
0 5 7 14 15 21 8 7 12 16 9 21 -3 5 0 9 5 9 6 0 11 4 11 9 0 5 16 43 35 84 19
41 35 77 35 80 0 2 8 22 17 43 9 22 18 45 19 53 2 8 9 35 18 60 19 59 43 156
50 201 3 19 8 46 10 59 7 31 19 131 19 156 0 11 0 149 -1 308 l-2 287 -50 0
-49 0 -3 -146 c-2 -118 -6 -148 -18 -155 -26 -13 -122 -40 -127 -35 -3 2 -4
25 -3 50 1 25 1 56 2 69 0 12 -1 39 -3 60 l-3 37 -48 0 -48 0 0 -125 0 -125
-27 -11 c-16 -6 -36 -12 -46 -14 -9 -2 -22 -7 -28 -10 -7 -5 -10 19 -7 79 l3
86 -52 0 -53 0 0 -100 0 -99 -52 -16 c-28 -8 -53 -13 -55 -11 -5 5 -7 37 -3
51 1 6 2 25 1 43 -1 32 -1 32 -51 32 l-50 0 -1 -52 c-2 -118 1 -111 -54 -129
l-50 -16 -3 64 -3 63 -49 0 -49 0 -3 -80 c-2 -44 -6 -80 -10 -81 -4 0 -23 -6
-42 -14 -51 -21 -58 -19 -56 18 3 56 3 57 -50 57 l-49 0 -3 -61 -3 -61 -40
-14 c-52 -18 -52 -18 -59 9 -3 12 -9 18 -13 12 -5 -5 -16 -11 -27 -12 -17 -1
-18 5 -11 90 3 51 8 106 10 122 2 17 6 62 9 100 4 39 8 88 11 110 2 22 7 72
11 110 3 39 7 86 9 105 2 19 6 67 10 105 3 39 8 86 10 105 4 31 10 96 20 210
8 89 17 178 21 215 3 22 7 69 9 105 3 36 7 81 10 100 3 19 8 69 11 110 10 122
19 216 30 320 3 25 6 63 8 85 2 22 7 74 11 117 l7 76 -125 125 -126 125 -128
-129 c-126 -128 -128 -130 -129 -177 -1 -26 1 -51 3 -55 3 -4 6 -43 9 -85 2
-42 6 -93 9 -112 3 -19 8 -66 11 -105 3 -38 7 -86 10 -105 2 -19 6 -62 9 -95
5 -56 9 -101 19 -200 3 -22 7 -71 11 -110 3 -38 7 -86 10 -105 2 -19 6 -69 10
-110 3 -41 8 -88 11 -105 2 -16 6 -59 9 -95 10 -122 13 -155 20 -220 4 -36 9
-87 11 -115 1 -27 3 -50 4 -50 1 0 3 -16 5 -35 3 -35 13 -144 20 -210 2 -19 7
-74 11 -122 l6 -88 -26 0 c-20 0 -26 -5 -26 -21 0 -18 -4 -20 -32 -14 -55 12
-66 22 -70 65 -2 22 0 40 4 40 4 0 5 7 2 15 -4 11 -21 15 -55 15 l-49 0 0 -40
c0 -22 -1 -40 -3 -40 -2 0 -27 7 -55 15 l-52 16 0 74 0 75 -50 0 -49 0 -3 -58
-3 -59 -52 16 -53 15 0 78 0 78 -49 0 c-48 0 -49 0 -53 -34 -2 -19 0 -32 4
-30 4 3 4 -6 -1 -19 -6 -14 -7 -28 -4 -31 10 -9 -8 -7 -57 8 l-45 13 -3 97 -3
96 -49 0 -50 0 0 -73 c0 -41 -2 -76 -5 -79 -3 -2 -28 2 -56 11 -44 13 -50 19
-48 41 0 14 1 69 0 123 l-1 97 -50 0 -50 0 0 -106 0 -106 -32 7 c-18 4 -37 11
-43 15 -5 5 -13 9 -18 9 -4 0 -18 3 -32 7 l-25 6 0 144 c0 79 3 144 6 144 3 0
71 -28 152 -62 81 -35 149 -63 152 -64 5 -1 26 -9 95 -39 22 -9 90 -37 150
-62 61 -24 124 -51 140 -58 17 -8 71 -30 120 -50 50 -20 104 -43 120 -50 115
-51 199 -84 205 -80 5 3 5 80 0 80 -1 0 -3 16 -5 35 -2 19 -6 51 -9 70 -2 19
-7 58 -11 85 -3 28 -8 66 -11 85 -3 19 -7 51 -9 70 -3 32 -6 57 -20 172 -3 24
-7 57 -10 73 -3 17 -7 52 -10 79 -7 60 -6 59 -80 139 -55 59 -152 166 -215
236 -14 15 -50 55 -80 88 -30 33 -89 98 -131 144 -42 46 -95 104 -117 129
l-41 45 27 28 c14 15 30 27 36 27 5 0 72 -64 148 -142 189 -194 440 -448 443
-448 1 0 0 30 -1 68 -2 37 -5 190 -7 341 -5 274 -5 274 -28 293 -13 10 -37 26
-54 35 -16 9 -32 19 -35 22 -3 4 -36 27 -75 52 -38 26 -96 64 -129 85 -32 21
-66 44 -74 49 -9 6 -96 63 -194 128 -98 64 -183 117 -188 117 -6 0 -10 3 -10
8 0 4 -20 18 -45 32 -25 14 -45 28 -45 31 0 4 -13 12 -30 19 -16 7 -30 15 -30
19 0 3 -20 17 -45 31 -25 14 -45 28 -45 32 0 5 -4 8 -10 8 -5 0 -56 31 -112
68 -57 38 -109 72 -116 76 -10 6 -12 -71 -8 -399z m2836 -2119 l0 -94 -37 -7
c-21 -5 -44 -9 -52 -11 -8 -2 -25 -5 -38 -9 -28 -7 -27 -10 -19 144 1 21 11
28 71 47 39 13 71 23 73 23 1 1 2 -41 2 -93z m-2455 -42 c0 -85 2 -83 -60 -69
-16 4 -39 8 -50 10 -11 1 -23 3 -27 4 -5 0 -8 41 -8 90 l0 89 73 -22 72 -23 0
-79z m2204 -23 l1 -78 -32 -7 c-86 -19 -78 -25 -78 57 l0 74 48 16 c26 9 50
16 53 16 4 1 7 -34 8 -78z m-1990 -28 c-1 -35 -5 -66 -10 -68 -4 -3 -28 0 -53
6 l-46 11 0 68 c0 36 3 69 6 72 3 3 27 -1 55 -10 l49 -16 -1 -63z m1781 -27
c0 -71 1 -70 -72 -80 l-38 -6 0 66 c0 38 4 63 9 59 5 -3 12 -1 16 5 4 6 10 8
14 6 4 -3 13 -1 21 5 8 5 23 9 33 9 14 0 17 -10 17 -64z m-1615 40 c37 -13 40
-17 41 -53 1 -21 3 -45 5 -53 3 -11 -5 -15 -31 -15 -68 0 -80 11 -80 77 0 64
2 66 65 44z m1403 -93 c-2 -43 -7 -58 -18 -59 -8 -1 -17 -3 -20 -4 -3 -1 -20
-4 -37 -6 l-33 -5 0 50 0 50 48 14 c26 8 51 15 55 16 4 1 7 -25 5 -56z m-1165
20 c13 -4 17 -16 17 -50 0 -44 0 -44 -32 -42 -18 2 -37 5 -43 8 -5 3 -14 6
-20 6 -11 0 -19 69 -11 91 4 10 12 11 38 3 18 -6 41 -13 51 -16z m546 -87 c1
-70 -3 -107 -10 -112 -7 -4 -9 -3 -5 4 3 6 2 13 -2 16 -5 3 -7 22 -4 43 6 46
6 62 -1 88 -4 19 7 65 17 65 2 0 5 -47 5 -104z m411 14 c0 -42 -6 -49 -47 -55
-16 -1 -35 -5 -43 -7 -11 -2 -16 7 -18 33 -3 33 0 37 30 48 18 7 40 16 48 21
23 12 30 2 30 -40z m-767 13 c30 -6 54 -37 37 -48 -5 -3 -6 -13 -3 -22 4 -9 2
-14 -3 -11 -5 3 -26 9 -48 12 -52 8 -56 12 -56 53 0 32 2 35 23 29 12 -4 35
-9 50 -13z m557 -68 c0 -21 -5 -36 -12 -36 -47 -5 -58 -7 -72 -12 -12 -5 -16
0 -16 17 0 27 17 44 57 56 43 13 43 12 43 -25z m-322 -23 c3 -18 -1 -22 -25
-22 -53 0 -70 10 -71 40 l-1 28 47 -12 c36 -9 48 -17 50 -34z"/>
</g>
</svg>
