<?xml version="1.0" encoding="utf-8"?>
<!-- Generator: Adobe Illustrator 21.0.2, SVG Export Plug-In . SVG Version: 6.00 Build 0)  -->
<svg version="1.1" xmlns="http://www.w3.org/2000/svg" xmlns:xlink="http://www.w3.org/1999/xlink" x="0px" y="0px"
	 viewBox="0 0 1366 768" style="enable-background:new 0 0 1366 768;" xml:space="preserve">
<style type="text/css">
	.st0{stroke:#444444;stroke-width:10;stroke-miterlimit:10;}
</style>
<g id="Layer_3">
</g>
<g id="Layer_2">
	<g>
		<g>
			<path class="st0" d="M512.5,518.5c0,0-55-76,8-132c0,0,24-25-4-47c0,0-143-139-150-286c0,0-71,48-19,137c0,0,55,102,123,146
				c0,0,30,20,16,36C486.5,372.5,426.5,457.5,512.5,518.5z"/>
			<path class="st0" d="M474.5,375.5c0,0,26-16-13-39c0,0-122-95-145-158c0,0-12,68,24,107c0,0,14.8,25.8,66,56.7
				C424.4,352.9,446.8,364.4,474.5,375.5z"/>
			<path class="st0" d="M469.5,395.5c0,0,15-14-23-30c0,0-113-51-149-98c0,0-5,45,22,69c0,0,28,30,65,36
				C384.5,372.5,464.5,382.5,469.5,395.5z"/>
			<path class="st0" d="M468.5,406.5c0,0,11-21-24-22c0,0-36-3-60-12c0,0-61-16-86-36c0,0,3,41,40,57c0,0,52,20,106,8
				C444.5,401.5,464.5,396.5,468.5,406.5z"/>
			<path class="st0" d="M466.5,412.5c0,0,4-13-15-8c0,0-56,10-61,8c0,0-61-4-79-9c0,0,28,36,54,32c0,0,34,5,60-13
				C425.5,422.5,451.5,403.5,466.5,412.5z"/>
			<path class="st0" d="M466.5,413.5c0,0-2-7-12,0c0,0-78,38-110,32c0,0,19,24,54,14c0,0,28-12,41-23
				C439.5,436.5,450.5,421.5,466.5,413.5z"/>
			<path class="st0" d="M464.3,421.2c0,0-3-8.5-11.2,1.8c0,0-26.1,27.7-29.5,28.6c0,0-34.3,22.3-45.9,26.9c0,0,29.2,7.8,41.5-4.7
				c0,0,20.2-11,27-30.9C446.3,442.9,452.7,422.5,464.3,421.2z"/>
			<path class="st0" d="M464.7,421.8c0,0-3.8-2.9-6.4,4.8c0,0-26.8,51.3-46.3,60.9c0,0,19.6,5,34.5-14.2c0,0,10.3-17.5,12.9-28.5
				C459.3,444.7,459.3,432.4,464.7,421.8z"/>
		</g>
		<g>
			<path class="st0" d="M868.7,508.5c0,0,55-76-8-132c0,0-24-25,4-47c0,0,143-139,150-286c0,0,71,48,19,137c0,0-55,102-123,146
				c0,0-30,20-16,36C894.7,362.5,954.7,447.5,868.7,508.5z"/>
			<path class="st0" d="M906.7,365.5c0,0-26-16,13-39c0,0,122-95,145-158c0,0,12,68-24,107c0,0-14.8,25.8-66,56.7
				C956.8,342.9,934.4,354.4,906.7,365.5z"/>
			<path class="st0" d="M911.7,385.5c0,0-15-14,23-30c0,0,113-51,149-98c0,0,5,45-22,69c0,0-28,30-65,36
				C996.7,362.5,916.7,372.5,911.7,385.5z"/>
			<path class="st0" d="M912.7,396.5c0,0-11-21,24-22c0,0,36-3,60-12c0,0,61-16,86-36c0,0-3,41-40,57c0,0-52,20-106,8
				C936.7,391.5,916.7,386.5,912.7,396.5z"/>
			<path class="st0" d="M914.7,402.5c0,0-4-13,15-8c0,0,56,10,61,8c0,0,61-4,79-9c0,0-28,36-54,32c0,0-34,5-60-13
				C955.7,412.5,929.7,393.5,914.7,402.5z"/>
			<path class="st0" d="M914.7,403.5c0,0,2-7,12,0c0,0,78,38,110,32c0,0-19,24-54,14c0,0-28-12-41-23
				C941.7,426.5,930.7,411.5,914.7,403.5z"/>
			<path class="st0" d="M916.9,411.2c0,0,3-8.5,11.2,1.8c0,0,26.1,27.7,29.5,28.6c0,0,34.3,22.3,45.9,26.9c0,0-29.2,7.8-41.5-4.7
				c0,0-20.2-11-27-30.9C934.9,432.9,928.5,412.5,916.9,411.2z"/>
			<path class="st0" d="M916.5,411.8c0,0,3.8-2.9,6.4,4.8c0,0,26.8,51.3,46.3,60.9c0,0-19.6,5-34.5-14.2c0,0-10.3-17.5-12.9-28.5
				C921.9,434.7,921.9,422.4,916.5,411.8z"/>
		</g>
		<g>
			<g>
				<polygon class="st0" points="672,320.4 693.1,299.3 713,319.1 692.5,535 				"/>
				<line class="st0" x1="692.5" y1="535" x2="692.5" y2="327"/>
			</g>
			<polygon class="st0" points="545,355.6 544,278 661.2,355 662.2,408.8 608.4,353.9 595,367.2 663,442 672,513.5 555.1,464.9 
				544,386 588.9,439 602.2,425.6 			"/>
			<line class="st0" x1="544" y1="278" x2="586" y2="342"/>
			<line class="st0" x1="672" y1="513" x2="616" y2="442"/>
			<g>
				<polygon class="st0" points="725,360 840,278 842,345 812,365 831,459 715,513 785,379 719,417 				"/>
				<line class="st0" x1="842" y1="278" x2="789" y2="345"/>
				<line class="st0" x1="715" y1="513" x2="785" y2="442"/>
			</g>
			<path class="st0" d="M558,535c0,0,9,137,136,137c125,0,134-137,134-137l-135,27L558,535z"/>
			<line class="st0" x1="687" y1="535" x2="687" y2="560.8"/>
			<line class="st0" x1="667" y1="525" x2="667" y2="560.8"/>
			<line class="st0" x1="646" y1="515" x2="646" y2="550.8"/>
			<line class="st0" x1="625" y1="508" x2="625" y2="550.8"/>
			<line class="st0" x1="604" y1="498" x2="604" y2="540.8"/>
			<line class="st0" x1="583" y1="486" x2="583" y2="540.8"/>
			<line class="st0" x1="562" y1="535" x2="562" y2="560.8"/>
			<line class="st0" x1="699" y1="560.8" x2="699" y2="535"/>
			<line class="st0" x1="558" y1="474" x2="558" y2="535.8"/>
			<line class="st0" x1="719" y1="523" x2="719" y2="558.8"/>
			<line class="st0" x1="740" y1="513" x2="740" y2="548.8"/>
			<line class="st0" x1="761" y1="506" x2="761" y2="548.8"/>
			<line class="st0" x1="782" y1="496" x2="782" y2="544"/>
			<line class="st0" x1="803" y1="484" x2="803" y2="538.8"/>
			<line class="st0" x1="828" y1="472" x2="828" y2="533.8"/>
			<line class="st0" x1="690.1" y1="547.3" x2="560.8" y2="507.3"/>
			<line class="st0" x1="698.8" y1="545.3" x2="828.1" y2="505.3"/>
		</g>
	</g>
</g>
</svg>
