<?xml version="1.0" encoding="utf-8"?>
<!-- Generator: Adobe Illustrator 21.0.2, SVG Export Plug-In . SVG Version: 6.00 Build 0)  -->
<svg version="1.1" xmlns="http://www.w3.org/2000/svg" xmlns:xlink="http://www.w3.org/1999/xlink" x="0px" y="0px"
	 viewBox="0 0 1366 768" style="enable-background:new 0 0 1366 768;" xml:space="preserve">
<style type="text/css">
	.st0{display:none;}
	.st1{stroke:#68635D;stroke-width:10;stroke-miterlimit:10;}
	.st2{fill:#68635D;stroke:#68635D;stroke-miterlimit:10;}
	.st3{font-family:'Orbitron-Light';}
	.st4{font-size:36px;}
	.st5{font-size:48px;}
</style>
<g id="Layer_3" class="st0">
</g>
<g id="Layer_2">
	<g>
		<path class="st1" d="M469.4,552.1c0,0-55-76,8-132c0,0,24-25-4-47c0,0-143-139-150-286c0,0-71,48-19,137c0,0,55,102,123,146
			c0,0,30,20,16,36C443.4,406.1,383.4,491.1,469.4,552.1z"/>
		<path class="st1" d="M431.4,409.1c0,0,26-16-13-39c0,0-122-95-145-158c0,0-12,68,24,107c0,0,14.8,25.8,66,56.7
			C381.3,386.5,403.7,397.9,431.4,409.1z"/>
		<path class="st1" d="M426.4,429.1c0,0,15-14-23-30c0,0-113-51-149-98c0,0-5,45,22,69c0,0,28,30,65,36
			C341.4,406.1,421.4,416.1,426.4,429.1z"/>
		<path class="st1" d="M425.4,440.1c0,0,11-21-24-22c0,0-36-3-60-12c0,0-61-16-86-36c0,0,3,41,40,57c0,0,52,20,106,8
			C401.4,435.1,421.4,430.1,425.4,440.1z"/>
		<path class="st1" d="M423.4,446.1c0,0,4-13-15-8c0,0-56,10-61,8c0,0-61-4-79-9c0,0,28,36,54,32c0,0,34,5,60-13
			C382.4,456.1,408.4,437.1,423.4,446.1z"/>
		<path class="st1" d="M423.4,447.1c0,0-2-7-12,0c0,0-78,38-110,32c0,0,19,24,54,14c0,0,28-12,41-23
			C396.4,470.1,407.4,455.1,423.4,447.1z"/>
		<path class="st1" d="M421.2,454.8c0,0-3-8.5-11.2,1.8c0,0-26.1,27.7-29.5,28.6c0,0-34.3,22.3-45.9,26.9c0,0,29.2,7.8,41.5-4.7
			c0,0,20.2-11,27-30.9C403.2,476.5,409.6,456.1,421.2,454.8z"/>
		<path class="st1" d="M421.6,455.3c0,0-3.8-2.9-6.4,4.8c0,0-26.8,51.3-46.3,60.9c0,0,19.6,5,34.5-14.2c0,0,10.3-17.5,12.9-28.5
			C416.2,478.3,416.2,465.9,421.6,455.3z"/>
	</g>
	<g>
		<g>
			<path class="st1" d="M896.6,552.1c0,0,55-76-8-132c0,0-24-25,4-47c0,0,143-139,150-286c0,0,71,48,19,137c0,0-55,102-123,146
				c0,0-30,20-16,36C922.6,406.1,982.6,491.1,896.6,552.1z"/>
			<path class="st1" d="M934.6,409.1c0,0-26-16,13-39c0,0,122-95,145-158c0,0,12,68-24,107c0,0-14.8,25.8-66,56.7
				C984.7,386.5,962.3,397.9,934.6,409.1z"/>
			<path class="st1" d="M939.6,429.1c0,0-15-14,23-30c0,0,113-51,149-98c0,0,5,45-22,69c0,0-28,30-65,36
				C1024.6,406.1,944.6,416.1,939.6,429.1z"/>
			<path class="st1" d="M940.6,440.1c0,0-11-21,24-22c0,0,36-3,60-12c0,0,61-16,86-36c0,0-3,41-40,57c0,0-52,20-106,8
				C964.6,435.1,944.6,430.1,940.6,440.1z"/>
			<path class="st1" d="M942.6,446.1c0,0-4-13,15-8c0,0,56,10,61,8c0,0,61-4,79-9c0,0-28,36-54,32c0,0-34,5-60-13
				C983.6,456.1,957.6,437.1,942.6,446.1z"/>
			<path class="st1" d="M942.6,447.1c0,0,2-7,12,0c0,0,78,38,110,32c0,0-19,24-54,14c0,0-28-12-41-23
				C969.6,470.1,958.6,455.1,942.6,447.1z"/>
			<path class="st1" d="M944.8,454.8c0,0,3-8.5,11.2,1.8c0,0,26.1,27.7,29.5,28.6c0,0,34.3,22.3,45.9,26.9c0,0-29.2,7.8-41.5-4.7
				c0,0-20.2-11-27-30.9C962.8,476.5,956.4,456.1,944.8,454.8z"/>
		</g>
		<path class="st1" d="M944.4,455.3c0,0,3.8-2.9,6.4,4.8c0,0,26.8,51.3,46.3,60.9c0,0-19.6,5-34.5-14.2c0,0-10.3-17.5-12.9-28.5
			C949.8,478.3,949.8,465.9,944.4,455.3z"/>
	</g>
	<g>
		<polygon class="st1" points="661,347.6 682.1,326.4 702,346.3 681.5,562.2 		"/>
		<line class="st1" x1="681.5" y1="562.2" x2="681.5" y2="354.2"/>
	</g>
	<g>
		<polygon class="st1" points="534,396.8 533,319.2 650.2,396.2 651.3,450 597.4,395.1 584.1,408.4 652,483.2 661,554.7 
			544.2,506.1 533,427.2 577.9,480.2 591.3,466.8 		"/>
		<line class="st1" x1="533" y1="319.2" x2="575" y2="383.2"/>
		<line class="st1" x1="661" y1="554.2" x2="605" y2="483.2"/>
	</g>
	<g>
		<polygon class="st1" points="712,401.2 827,319.2 829,386.2 799,406.2 818,500.2 702,554.2 772,420.2 706,458.2 		"/>
		<line class="st1" x1="829" y1="319.2" x2="776" y2="386.2"/>
		<line class="st1" x1="702" y1="554.2" x2="772" y2="483.2"/>
	</g>
	<text transform="matrix(1 0 0 1 430.9043 672.1997)"><tspan x="0" y="0" class="st2 st3 st4">SKILL </tspan><tspan x="132.1" y="0" class="st2 st3 st5">.</tspan><tspan x="142.4" y="0" class="st2 st3 st4"> INSTINCT</tspan><tspan x="341.7" y="0" class="st2 st3 st5">.</tspan><tspan x="352" y="0" class="st2 st3 st4"> TEMPO</tspan></text>
	<g>
		<g>
			<path class="st2" d="M537.9,555.6c0.5,1.7,0.4,3.5-0.5,4.9c-1.5,2.2-3.1,4.4-4.6,6.6c-1.8,2.6-6,2.8-9.4,0.3
				c-10.1-7.5-19.8-15.8-28.9-25c8.1-8.2,16.3-16.3,24.4-24.5c7.6,7.5,15.5,14.4,23.8,20.7c2.9,2.2,3.8,5.9,2,8.6
				c-1.4,2-2.8,4-4.3,6c-0.5,0.7-1.3,1.3-2.1,1.6C538.1,555.1,538,555.3,537.9,555.6z M521,525.4c-0.9-0.8-2.2-0.9-2.9-0.2
				c-1.7,1.8-3.4,3.5-5.1,5.3c-0.7,0.7-0.5,2.1,0.4,3c6.5,6.1,13.2,11.8,20.2,17.1c1,0.7,2.3,0.6,2.9-0.2c1.5-2,2.9-3.9,4.4-5.9
				c0.6-0.8,0.4-2.1-0.6-2.8C533.6,536.7,527.2,531.3,521,525.4z M533.5,557.7c0.6-0.8,0.2-2.1-0.8-2.9c-7.6-5.7-14.9-11.8-22-18.4
				c-0.9-0.9-2.3-1-3-0.3c-1.9,1.9-3.7,3.9-5.6,5.8c-0.7,0.7-0.5,2.1,0.5,3.1c7.4,6.9,15.1,13.4,23,19.3c1,0.8,2.5,0.7,3-0.1
				C530.3,562,531.9,559.8,533.5,557.7z"/>
			<path class="st2" d="M582.3,562.8c3.2,1.5,4.8,5,3.5,7.9c-3.9,8.8-7.8,17.6-11.7,26.3c-1.5-0.7-3-1.4-4.5-2.1
				c1.8-3.8,3.6-7.6,5.3-11.4c-9.8-4.6-19.4-9.8-28.7-15.8c-2.3,3.6-4.5,7.1-6.8,10.7c-1.4-0.9-2.8-1.8-4.2-2.7
				c5.3-8,10.6-16,15.9-24c1.8-2.7,5.6-3.2,8.6-1.3C567.1,555,574.6,559.1,582.3,562.8z M576.5,580c1.7-3.7,3.5-7.4,5.2-11.1
				c0.4-0.9-0.1-2.1-1.1-2.6c-7.8-3.7-15.5-7.9-23-12.6c-1-0.6-2.3-0.4-2.8,0.4c-2.2,3.5-4.4,6.9-6.6,10.4
				C557.4,570.3,566.9,575.5,576.5,580z"/>
			<path class="st2" d="M623.8,577.9c3.4,0.9,5.5,4,4.8,7.1c-1.7,7.5-3.5,15-5.2,22.5c-0.7,3.1-4.4,4.9-8.3,3.9
				c-11.7-3-23.2-6.9-34.5-11.5c4.4-10.7,8.8-21.3,13.2-32C603.6,571.9,613.6,575.2,623.8,577.9z M624.4,584c0.2-1-0.5-2-1.6-2.3
				c-8.3-2.1-16.5-4.7-24.5-7.8c-1.1-0.4-2.3,0-2.6,1c-2.8,7.2-5.6,14.3-8.4,21.5c-0.4,0.9,0.3,2.1,1.5,2.6c9,3.4,18.1,6.3,27.3,8.7
				c1.2,0.3,2.5-0.3,2.7-1.2C620.6,598.9,622.5,591.4,624.4,584z"/>
			<path class="st2" d="M672.4,585.1c1.9,0.1,3.9,0.1,5.8,0.2c-0.2,11.5-0.4,23-0.6,34.6c-1.6,0-3.2-0.1-4.9-0.1
				c0.4-10,0.7-20.1,1.1-30.1c-6.1,6-12.6,11.9-19.5,17.4c-5.6-6.9-10.7-14-15.3-21.2c-1.8,9.9-3.7,19.8-5.5,29.6
				c-1.6-0.3-3.2-0.6-4.8-0.9c2.3-11.3,4.6-22.6,6.9-33.9c1.9,0.4,3.8,0.8,5.7,1.1c4.1,6.5,8.7,12.9,13.6,19.2
				C661.2,595.9,667,590.6,672.4,585.1z"/>
			<path class="st2" d="M683.9,585.3c1.4,0,2.8,0,4.2-0.1c0.3,11.5,0.6,23,0.9,34.6c-1.6,0-3.2,0.1-4.9,0.1
				C684.1,608.3,684,596.8,683.9,585.3z"/>
			<path class="st2" d="M728.5,580.6c1.4-0.3,2.8-0.6,4.2-0.9c2.5,11.2,5,22.5,7.5,33.7c-2.2,0.5-4.4,0.9-6.5,1.4
				c-12.4-7.8-23.6-16.5-33.7-25.8c0.8,10,1.5,20,2.3,30.1c-1.6,0.1-3.2,0.2-4.9,0.3c-0.7-11.5-1.3-23-2-34.5
				c1.9-0.1,3.9-0.2,5.8-0.4c10,9.3,21.1,17.9,33.4,25.6C732.5,600.3,730.5,590.5,728.5,580.6z"/>
			<path class="st2" d="M772.5,567c0.5,1.2,1,2.4,1.5,3.6c-5.3,2.2-10.6,4.3-16,6.1c3.3,9.7,6.6,19.4,9.9,29c-1.6,0.5-3.1,1-4.7,1.5
				c-3.1-9.7-6.2-19.5-9.4-29.2c-5.4,1.7-10.9,3.3-16.5,4.6c-0.3-1.3-0.6-2.5-0.9-3.8C748.8,575.9,760.8,571.9,772.5,567z"/>
			<path class="st2" d="M804.5,550.4c3.1-1.9,6.9-1.4,8.6,1.3c4.2,6.4,8.5,12.8,12.7,19.2c1.8,2.7,0.4,6.6-3.1,8.8
				c-8.4,5.3-17.1,10-25.9,14.2c-3.7,1.8-7.7,0.8-9-2.2c-3.1-7-6.2-14-9.4-21.1c-1.3-2.9,0.3-6.4,3.5-7.9
				C789.6,559.1,797.1,554.9,804.5,550.4z M820.7,576.4c1.1-0.7,1.6-2,1-2.9c-4.1-6.5-8.2-13-12.4-19.5c-0.5-0.8-1.8-1-2.8-0.4
				c-7.5,4.7-15.1,8.9-23,12.6c-1,0.5-1.5,1.7-1.1,2.6c3.2,7,6.5,13.9,9.7,20.9c0.4,0.9,1.8,1.2,2.9,0.7
				C803.8,586.3,812.4,581.6,820.7,576.4z"/>
			<path class="st2" d="M842.1,521.1c1.1-1,2.2-2.1,3.3-3.2c8.1,8.2,16.3,16.3,24.4,24.5c-1.7,1.7-3.4,3.4-5.1,5
				c-15.1,0.5-29.7-0.6-43.5-2.9c5.9,8.1,11.8,16.2,17.8,24.4c-1.4,1-2.7,2-4.1,3c-6.6-9.4-13.2-18.9-19.8-28.3
				c1.6-1.2,3.3-2.3,4.9-3.5c13.7,2.3,28.2,3.4,43.2,2.9C856,535.6,849.1,528.3,842.1,521.1z"/>
		</g>
	</g>
</g>
</svg>
